{"title":"The.November.Man.2014.1080p.HDRip.H264.AAC.MP4.Raven","uid":11121426,"size":1502057884,"categoryP":"video","categoryS":"hd___movies","magnet":"?xt=urn:btih:18f83900e37d22d271070987cfde0325e983b7f7&amp;dn=The.November.Man.2014.1080p.HDRip.H264.AAC.MP4.Raven&amp;tr=udp%3A%2F%2Ftracker.openbittorrent.com%3A80&amp;tr=udp%3A%2F%2Fopen.demonii.com%3A1337&amp;tr=udp%3A%2F%2Ftracker.coppersurfer.tk%3A6969&amp;tr=udp%3A%2F%2Fexodus.desync.com%3A6969","seeders":6,"leechers":0,"uploader":"Raven1969","files":-1,"time":1411918924,"description":"The.November.Man.2014.1080p.HDRip.H264.AAC.MP4.Raven.\n\n\n\n\nEnglish, Spanish and Swedish subs included.\n\n\n\n\n\nScreen images:\n\n\n &lt;a href=&quot;\nhttp://i.imgur.com/GqeWyvW.png&quot; rel=&quot;nofollow&quot; target=&quot;_NEW&quot;&gt;\nhttp://i.imgur.com/GqeWyvW.png&lt;/a&gt;\n\n\n &lt;a href=&quot;\nhttp://i.imgur.com/8nKTv6d.png&quot; rel=&quot;nofollow&quot; target=&quot;_NEW&quot;&gt;\nhttp://i.imgur.com/8nKTv6d.png&lt;/a&gt;\n\n\n &lt;a href=&quot;\nhttp://i.imgur.com/bqumOQ8.png&quot; rel=&quot;nofollow&quot; target=&quot;_NEW&quot;&gt;\nhttp://i.imgur.com/bqumOQ8.png&lt;/a&gt;\n\n\n &lt;a href=&quot;\nhttp://i.imgur.com/IFdP5Ea.png&quot; rel=&quot;nofollow&quot; target=&quot;_NEW&quot;&gt;\nhttp://i.imgur.com/IFdP5Ea.png&lt;/a&gt;\n\n\n\n\n\n\n\nIMDB:\n\n\n\n &lt;a href=&quot;\nhttp://www.imdb.com/title/tt2402157&quot; rel=&quot;nofollow&quot; target=&quot;_NEW&quot;&gt;\nhttp://www.imdb.com/title/tt2402157&lt;/a&gt;\n\n\n\n\nIMDB Rating:  6.5\n\n\n\n\nStoryline:\n\nAn ex-CIA operative is brought back in on a very personal mission and finds himself pitted against his former pupil in a deadly game involving high level CIA officials and the Russian president-elect.\n\n\n\nGeneral\nFormat                                   : MPEG-4\nFormat profile                           : Base Media\nCodec ID                                 : isom\nFile size                                : 1.40 GiB\nDuration                                 : 1h 43mn\nOverall bit rate mode                    : Variable\nOverall bit rate                         : 1 937 Kbps\nEncoded date                             : UTC 2014-09-25 09:00:45\nTagged date                              : UTC 2014-09-25 09:00:45\nWriting application                      : My MP4Box GUI 0.6.0.6 &lt;http://my-mp4box-gui.zymichost.com&gt;\n\nVideo\nID                                       : 1\nFormat                                   : AVC\nFormat/Info                              : Advanced Video Codec\nFormat profile                           : &lt;a class=&quot;__cf_email__&quot; href=&quot;/cdn-cgi/l/email-protection&quot; data-cfemail=&quot;9bd3f2fcf3dbd7afb5ab&quot;&gt;[email&amp;#160;protected]&lt;/a&gt;&lt;script data-cfhash='f9e31' type=&quot;text/javascript&quot;&gt;\n/* &lt;![CDATA[ */!function(){try{var t=&quot;currentScript&quot;in document?document.currentScript:function(){for(var t=document.getElementsByTagName(&quot;script&quot;),e=t.length;e--;)if(t[e].getAttribute(&quot;data-cfhash&quot;))return t[e]}();if(t&amp;&amp;t.previousSibling){var e,r,n,i,c=t.previousSibling,a=c.getAttribute(&quot;data-cfemail&quot;);if(a){for(e=&quot;&quot;,r=parseInt(a.substr(0,2),16),n=2;a.length-n;n+=2)i=parseInt(a.substr(n,2),16)^r,e+=String.fromCharCode(i);e=document.createTextNode(e),c.parentNode.replaceChild(e,c)}t.parentNode.removeChild(t);}}catch(u){}}()/* ]]&gt; */&lt;/script&gt;\nFormat settings, CABAC                   : Yes\nFormat settings, ReFrames                : 6 frames\nCodec ID                                 : avc1\nCodec ID/Info                            : Advanced Video Coding\nDuration                                 : 1h 43mn\nBit rate                                 : 1 837 Kbps\nMaximum bit rate                         : 8 199 Kbps\nWidth                                    : 1 918 pixels\nHeight                                   : 804 pixels\nDisplay aspect ratio                     : 2.40:1\nFrame rate mode                          : Constant\nFrame rate                               : 25.000 fps\nColor space                              : YUV\nChroma subsampling                       : 4:2:0\nBit depth                                : 8 bits\nScan type                                : Progressive\nBits/(Pixel*Frame)                       : 0.048\nStream size                              : 1.32 GiB (95%)\nWriting library                          : x264 core 128\nEncoded date                             : UTC 2014-09-25 09:00:45\nTagged date                              : UTC 2014-09-25 09:01:04\n\nAudio\nID                                       : 2\nFormat                                   : AAC\nFormat/Info                              : Advanced Audio Codec\nFormat profile                           : LC\nCodec ID                                 : 40\nDuration                                 : 1h 43mn\nBit rate mode                            : Variable\nBit rate                                 : 96.0 Kbps\nMaximum bit rate                         : 123 Kbps\nChannel(s)                               : 2 channels\nChannel positions                        : Front: L R\nSampling rate                            : 48.0 KHz\nCompression mode                         : Lossy\nStream size                              : 70.9 MiB (5%)\nEncoded date                             : UTC 2014-09-25 09:01:00\nTagged date                              : UTC 2014-09-25 09:01:04\n\n\n\nPLEASE  SEED FOR AS LONG AS POSSIBLE TO KEEP THE TORRENT ALIVE :-)","torrent":{"xt":"urn:btih:18f83900e37d22d271070987cfde0325e983b7f7","amp;dn":"The.November.Man.2014.1080p.HDRip.H264.AAC.MP4.Raven","amp;tr":["udp%3A%2F%2Ftracker.openbittorrent.com%3A80","udp%3A%2F%2Fopen.demonii.com%3A1337","udp%3A%2F%2Ftracker.coppersurfer.tk%3A6969","udp%3A%2F%2Fexodus.desync.com%3A6969"],"infoHash":"18f83900e37d22d271070987cfde0325e983b7f7","infoHashBuffer":{"type":"Buffer","data":[24,248,57,0,227,125,34,210,113,7,9,135,207,222,3,37,233,131,183,247]},"announce":[],"urlList":[]}}